<svg width="50" height="64" viewBox="0 0 50 64" fill="none" xmlns="http://www.w3.org/2000/svg">
<g clip-path="url(#clip0)">
<path d="M8.31347 58.1678C10.7498 60.2313 13.6227 61.8248 16.8003 62.8199C18.0536 63.2124 19.352 63.5155 20.6917 63.7144C21.1812 63.7868 21.6766 63.845 22.1763 63.8898C22.9648 63.9609 23.764 64 24.5749 64C25.3613 64 26.1365 63.9616 26.9024 63.8949C27.3369 63.8572 27.7684 63.8092 28.1957 63.7504C29.5753 63.561 30.9127 63.2632 32.2023 62.8678C35.258 61.9316 38.0375 60.4431 40.4208 58.5158C45.786 54.1777 49.15 47.6245 49.15 40.1678C49.15 37.3832 48.6815 34.0854 47.853 30.6168C47.4868 29.0829 47.0503 27.5176 46.5482 25.9444C45.9869 24.1833 45.3457 22.4194 44.6364 20.6874C43.8865 18.8551 43.0637 17.0623 42.1753 15.3569C42.1433 15.2953 42.1129 15.2314 42.0802 15.1698C41.0823 13.2695 39.7157 10.9383 38.03 8.67838C37.8778 8.47453 37.7233 8.2714 37.5659 8.06838C36.8326 7.12477 36.0442 6.20296 35.2022 5.33839C34.3899 4.50428 33.5281 3.72611 32.6201 3.0341C32.0499 2.59892 31.4618 2.19928 30.856 1.8416C28.9298 0.705638 26.8293 0 24.5742 0C22.2684 0 20.1223 0.736097 18.161 1.91769C16.6292 2.84104 15.2105 4.0371 13.9165 5.36944C12.9243 6.3914 12.006 7.4924 11.1661 8.61379C11.1415 8.64638 11.1182 8.67909 11.0943 8.71168C9.42028 10.9616 8.06175 13.2797 7.06883 15.1698C7.0565 15.1937 7.04489 15.2184 7.03185 15.2423C6.14844 16.9287 5.33033 18.7043 4.5825 20.5176C3.863 22.262 3.21306 24.0397 2.643 25.816C2.16871 27.2941 1.7494 28.7673 1.39326 30.2142C0.503333 33.8307 0 37.2759 0 40.1684C0 47.4296 3.19137 53.8311 8.31347 58.1678ZM11.8638 55.6356C10.028 52.8563 8.91043 49.6996 8.33741 46.3445C10.5648 47.5993 13.1847 48.5987 16.0729 49.2682C16.4253 52.0924 16.9686 54.7857 17.7476 57.2604C15.6514 56.8802 13.6764 56.3305 11.8638 55.6356ZM26.3338 57.8268C25.7602 57.8516 25.1836 57.8689 24.599 57.8689C23.9063 57.8689 23.2223 57.8471 22.5442 57.8117C21.6615 55.5921 21.0022 52.9781 20.5583 50.0118C21.8725 50.1475 23.2209 50.2219 24.599 50.2219C25.9523 50.2219 27.2768 50.1502 28.5678 50.0189C28.0659 52.7795 27.3376 55.4094 26.3338 57.8268ZM37.0249 55.7589C35.2197 56.4256 33.2563 56.9478 31.1805 57.3075C32.0212 54.8573 32.6573 52.1729 33.102 49.2732C35.8914 48.6277 38.4307 47.6754 40.6073 46.4808C40.019 49.8346 38.8848 52.9883 37.0249 55.7589ZM45.4966 27.4392C46.1212 29.5128 46.6281 31.5618 46.9965 33.5187C46.5715 34.408 46.0079 35.2522 45.3195 36.0456C45.1295 33.7086 44.7814 31.2681 44.2774 28.7302C44.7205 28.3162 45.1281 27.886 45.4966 27.4392ZM45.4198 42.8311C46.3874 41.7922 47.1526 40.6754 47.6813 39.4974C47.6871 39.7208 47.698 39.9501 47.698 40.1677C47.698 44.1641 46.6645 47.8821 44.8425 51.0973C44.4646 51.4586 44.0627 51.8088 43.6356 52.1477C44.6198 49.3254 45.2188 46.2167 45.4198 42.8311ZM41.0243 16.2956C41.9535 18.1022 42.8137 20.0005 43.5826 21.9377C43.3426 22.1865 43.0937 22.4302 42.8282 22.666C42.2227 20.4885 41.553 18.3923 40.8635 16.4211C40.9185 16.3797 40.9699 16.3369 41.0243 16.2956ZM41.112 39.4488C39.0225 40.6689 36.5369 41.6408 33.777 42.3109C33.8953 39.6686 33.8834 36.8813 33.7372 33.948C36.1769 33.3578 38.4023 32.5302 40.3286 31.5046C40.7754 34.1432 41.0613 36.8167 41.112 39.4488ZM37.0031 18.6673C37.7038 20.7316 38.3748 22.9271 38.9658 25.2002C37.2527 26.0437 35.3097 26.7219 33.191 27.2101C33.1104 26.4731 33.0329 25.7391 32.9377 24.9862C32.7354 23.3796 32.5083 21.8143 32.2662 20.3043C33.9548 19.8873 35.5425 19.3347 37.0031 18.6673ZM32.29 7.00364C32.8741 8.24319 33.5723 9.791 34.3189 11.5788C33.2816 12.101 32.124 12.5224 30.8794 12.8481C30.4928 11.0188 30.1084 9.35569 29.7514 7.90151C30.6408 7.65927 31.4887 7.35895 32.29 7.00364ZM23.7503 8.56958C24.0143 8.57966 24.2754 8.59933 24.543 8.59933C24.8398 8.59933 25.1291 8.57895 25.4215 8.56591C25.7782 10.013 26.1692 11.6884 26.5638 13.5445C25.9009 13.5924 25.2298 13.6258 24.543 13.6258C23.9287 13.6258 23.3267 13.6004 22.7312 13.562C23.0852 11.7058 23.4334 10.026 23.7503 8.56958ZM20.6975 26.8256C20.9209 24.8477 21.179 22.9133 21.4561 21.0536C22.502 21.1559 23.5711 21.2103 24.6606 21.2103C25.7847 21.2103 26.8879 21.1536 27.9659 21.0448C28.3184 23.2375 28.6367 25.544 28.8906 27.9143C27.5219 28.0564 26.1083 28.1311 24.6606 28.1311C23.2658 28.1311 21.9044 28.0608 20.5843 27.9288C20.6235 27.5596 20.6554 27.1999 20.6975 26.8256ZM20.0403 34.7365C21.5251 34.9034 23.0598 34.9918 24.633 34.9918C26.2722 34.9918 27.8694 34.8969 29.4114 34.7154C29.5345 37.5102 29.5362 40.3266 29.3737 43.0923C27.8432 43.2698 26.2576 43.3633 24.6323 43.3633C23.0264 43.3633 21.459 43.2728 19.946 43.0988C19.8517 40.502 19.8844 37.7096 20.0403 34.7365ZM16.6988 6.96299C17.5554 7.34805 18.4657 7.67088 19.4216 7.92616C19.1032 9.39125 18.7573 11.0646 18.4069 12.9025C17.0455 12.5601 15.7907 12.0981 14.6737 11.5237C15.4201 9.73944 16.1171 8.19673 16.6988 6.96299ZM12.0155 18.5215C13.5843 19.2656 15.3041 19.8785 17.1441 20.3275C16.8149 22.5368 16.5109 24.8548 16.2585 27.2368C13.9607 26.7167 11.8645 25.9777 10.0447 25.0414C10.6403 22.7711 11.3142 20.5793 12.0155 18.5215ZM15.7088 33.9902C15.5543 36.7732 15.4963 39.5767 15.5696 42.3305C12.6437 41.6264 10.0304 40.5803 7.86311 39.2618C7.92486 36.6396 8.21629 33.98 8.66605 31.3552C10.7012 32.475 13.0817 33.3693 15.7088 33.9902ZM3.68167 27.3406C4.00367 27.7402 4.35614 28.1275 4.73847 28.5011C4.23442 30.9975 3.87828 33.4026 3.67657 35.7056C3.06444 34.9462 2.56905 34.1418 2.19193 33.2989C2.56241 31.3777 3.06729 29.3699 3.68167 27.3406ZM4.21842 50.9488C2.44864 47.7683 1.44991 44.1018 1.44991 40.1678C1.44991 39.9305 1.46153 39.6811 1.46805 39.4366C1.95976 40.5469 2.65604 41.606 3.53957 42.5952C3.72019 45.9593 4.28811 49.0564 5.23682 51.869C4.87914 51.571 4.53901 51.2643 4.21842 50.9488ZM5.62401 21.7963C6.39282 19.8728 7.24873 17.9883 8.17493 16.1954C8.17777 16.1977 8.18074 16.1997 8.18358 16.2019C7.49524 18.1546 6.82646 20.2318 6.21801 22.391C6.01132 22.1974 5.8134 21.9986 5.62401 21.7963Z" fill="url(#paint0_linear)"/>
</g>
<defs>
<linearGradient id="paint0_linear" x1="24.575" y1="0" x2="24.575" y2="64" gradientUnits="userSpaceOnUse">
<stop stop-color="#FF04F5"/>
<stop offset="1" stop-color="#4CC7FF"/>
</linearGradient>
<clipPath id="clip0">
<rect width="49.0421" height="64" fill="white"/>
</clipPath>
</defs>
</svg>
